CommonSerif-BoldItalic.ufo
<glyph name="copyright" format="2">
  <advance width="633"/>
  <unicode hex="00A9"/>
  <outline>
    <contour>
      <point x="317" y="23" type="curve" smooth="yes"/>
      <point x="489" y="23"/>
      <point x="642" y="182"/>
      <point x="642" y="360" type="curve" smooth="yes"/>
      <point x="642" y="492"/>
      <point x="558" y="588"/>
      <point x="421" y="588" type="curve" smooth="yes"/>
      <point x="247" y="588"/>
      <point x="97" y="433"/>
      <point x="97" y="254" type="curve" smooth="yes"/>
      <point x="97" y="118"/>
      <point x="184" y="23"/>
    </contour>
    <contour>
      <point x="419" y="559" type="curve" smooth="yes"/>
      <point x="536" y="559"/>
      <point x="612" y="474"/>
      <point x="612" y="354" type="curve" smooth="yes"/>
      <point x="612" y="193"/>
      <point x="477" y="52"/>
      <point x="324" y="52" type="curve" smooth="yes"/>
      <point x="203" y="52"/>
      <point x="127" y="139"/>
      <point x="127" y="255" type="curve" smooth="yes"/>
      <point x="127" y="413"/>
      <point x="266" y="559"/>
    </contour>
    <contour>
      <point x="467" y="217" type="curve"/>
      <point x="465" y="223"/>
      <point x="462" y="229"/>
      <point x="454" y="232" type="curve"/>
      <point x="442" y="217"/>
      <point x="420" y="197"/>
      <point x="381" y="197" type="curve" smooth="yes"/>
      <point x="341" y="197"/>
      <point x="325" y="218"/>
      <point x="325" y="257" type="curve" smooth="yes"/>
      <point x="325" y="309"/>
      <point x="352" y="416"/>
      <point x="414" y="416" type="curve" smooth="yes"/>
      <point x="455" y="416"/>
      <point x="463" y="401"/>
      <point x="474" y="356" type="curve"/>
      <point x="481" y="356"/>
      <point x="487" y="356"/>
      <point x="492" y="359" type="curve"/>
      <point x="497" y="381"/>
      <point x="499" y="405"/>
      <point x="499" y="436" type="curve"/>
      <point x="474" y="437"/>
      <point x="449" y="450"/>
      <point x="413" y="450" type="curve" smooth="yes"/>
      <point x="319" y="450"/>
      <point x="244" y="358"/>
      <point x="244" y="267" type="curve" smooth="yes"/>
      <point x="244" y="200"/>
      <point x="286" y="158"/>
      <point x="349" y="158" type="curve" smooth="yes"/>
      <point x="402" y="158"/>
      <point x="444" y="187"/>
    </contour>
  </outline>
</glyph>
<glyph name="uni018A" format="2">
  <advance width="745"/>
  <unicode hex="018A"/>
  <outline>
    <contour>
      <point x="376" y="645" type="line"/>
      <point x="365" y="645"/>
      <point x="292" y="648"/>
      <point x="272" y="647" type="curve" smooth="yes"/>
      <point x="175" y="643"/>
      <point x="109" y="586"/>
      <point x="109" y="518" type="curve" smooth="yes"/>
      <point x="109" y="490"/>
      <point x="127" y="467"/>
      <point x="156" y="467" type="curve" smooth="yes"/>
      <point x="199" y="467"/>
      <point x="212" y="501"/>
      <point x="212" y="532" type="curve" smooth="yes"/>
      <point x="212" y="545"/>
      <point x="207" y="556"/>
      <point x="207" y="572" type="curve" smooth="yes"/>
      <point x="207" y="593"/>
      <point x="226" y="615"/>
      <point x="253" y="615" type="curve" smooth="yes"/>
      <point x="276" y="615"/>
      <point x="289" y="594"/>
      <point x="289" y="564" type="curve"/>
      <point x="376" y="564" type="line"/>
    </contour>
    <contour>
      <point x="247" y="1" type="curve" smooth="yes"/>
      <point x="285" y="1"/>
      <point x="364" y="-2"/>
      <point x="402" y="-2" type="curve" smooth="yes"/>
      <point x="641" y="-2"/>
      <point x="796" y="153"/>
      <point x="796" y="387" type="curve" smooth="yes"/>
      <point x="796" y="566"/>
      <point x="669" y="646"/>
      <point x="502" y="646" type="curve" smooth="yes"/>
      <point x="453" y="646"/>
      <point x="405" y="645"/>
      <point x="356" y="645" type="curve"/>
      <point x="289" y="563" type="line"/>
      <point x="203" y="122" type="line" smooth="yes"/>
      <point x="192" y="62"/>
      <point x="175" y="32"/>
      <point x="106" y="32" type="curve"/>
      <point x="98" y="27"/>
      <point x="89" y="5"/>
      <point x="99" y="-2" type="curve"/>
      <point x="110" y="-2"/>
      <point x="209" y="1"/>
    </contour>
    <contour>
      <point x="337" y="119" type="curve" smooth="yes"/>
      <point x="416" y="529" type="line" smooth="yes"/>
      <point x="427" y="584"/>
      <point x="455" y="604"/>
      <point x="490" y="604" type="curve" smooth="yes"/>
      <point x="619" y="604"/>
      <point x="655" y="525"/>
      <point x="655" y="426" type="curve" smooth="yes"/>
      <point x="655" y="291"/>
      <point x="580" y="40"/>
      <point x="413" y="40" type="curve" smooth="yes"/>
      <point x="358" y="40"/>
      <point x="333" y="48"/>
      <point x="333" y="88" type="curve" smooth="yes"/>
      <point x="333" y="97"/>
      <point x="335" y="107"/>
    </contour>
  </outline>
  <guideline angle="258.965" x="289" y="563"/>
  <guideline angle="79.0937" x="337" y="119"/>
</glyph>
<glyph name="uni02A6" format="2">
  <advance width="599"/>
  <unicode hex="02A6"/>
  <outline>
    <contour>
      <point x="164" y="-13" type="curve" smooth="yes"/>
      <point x="353" y="-13" type="line" smooth="yes"/>
      <point x="386" y="-13"/>
      <point x="470" y="-4"/>
      <point x="504" y="13" type="curve" smooth="yes"/>
      <point x="550" y="35"/>
      <point x="578" y="67"/>
      <point x="589" y="114" type="curve" smooth="yes"/>
      <point x="591" y="123"/>
      <point x="592" y="132"/>
      <point x="592" y="141" type="curve" smooth="yes"/>
      <point x="592" y="173"/>
      <point x="576" y="204"/>
      <point x="525" y="233" type="curve" smooth="yes"/>
      <point x="450" y="276"/>
      <point x="406" y="278"/>
      <point x="406" y="318" type="curve" smooth="yes"/>
      <point x="406" y="323"/>
      <point x="407" y="329"/>
      <point x="409" y="336" type="curve" smooth="yes"/>
      <point x="422" y="395"/>
      <point x="473" y="414"/>
      <point x="512" y="414" type="curve" smooth="yes"/>
      <point x="534" y="414"/>
      <point x="592" y="403"/>
      <point x="597" y="295" type="curve"/>
      <point x="618" y="296" type="line"/>
      <point x="633" y="417" type="line"/>
      <point x="616" y="428"/>
      <point x="569" y="444"/>
      <point x="518" y="444" type="curve" smooth="yes"/>
      <point x="438" y="444"/>
      <point x="360" y="393"/>
      <point x="344" y="324" type="curve" smooth="yes"/>
      <point x="341" y="312"/>
      <point x="340" y="303"/>
      <point x="340" y="293" type="curve" smooth="yes"/>
      <point x="340" y="266"/>
      <point x="351" y="247"/>
      <point x="373" y="232" type="curve" smooth="yes"/>
      <point x="430" y="194"/>
      <point x="518" y="172"/>
      <point x="518" y="109" type="curve" smooth="yes"/>
      <point x="518" y="104"/>
      <point x="517" y="98"/>
      <point x="516" y="92" type="curve" smooth="yes"/>
      <point x="504" y="42"/>
      <point x="447" y="18"/>
      <point x="409" y="18" type="curve" smooth="yes"/>
      <point x="296" y="18"/>
      <point x="193" y="26"/>
      <point x="186" y="65" type="curve" smooth="yes"/>
      <point x="185" y="68"/>
      <point x="185" y="71"/>
      <point x="185" y="75" type="curve" smooth="yes"/>
      <point x="185" y="88"/>
      <point x="188" y="108"/>
      <point x="194" y="134" type="curve" smooth="yes"/>
      <point x="254" y="391" type="line"/>
      <point x="366" y="391" type="line"/>
      <point x="375" y="430" type="line"/>
      <point x="263" y="430" type="line"/>
      <point x="298" y="584" type="line"/>
      <point x="237" y="564" type="line"/>
      <point x="232" y="545" type="line"/>
      <point x="222" y="501"/>
      <point x="211" y="473"/>
      <point x="200" y="458" type="curve"/>
      <point x="180" y="436"/>
      <point x="146" y="430"/>
      <point x="119" y="430" type="curve"/>
      <point x="110" y="391" type="line"/>
      <point x="180" y="391" type="line"/>
      <point x="109" y="87" type="line" smooth="yes"/>
      <point x="106" y="72"/>
      <point x="104" y="58"/>
      <point x="104" y="47" type="curve" smooth="yes"/>
      <point x="104" y="4"/>
      <point x="127" y="-13"/>
    </contour>
  </outline>
</glyph>
<glyph name="uni0366" format="2">
  <unicode hex="0366"/>
  <anchor x="-56" y="509" name="_top"/>
  <outline>
    <contour>
      <point x="-122.618" y="564.125" type="curve" smooth="yes"/>
      <point x="-122.618" y="534.902"/>
      <point x="-105.26" y="509"/>
      <point x="-62" y="509" type="curve" smooth="yes"/>
      <point x="-10.6353" y="509"/>
      <point x="27.9366" y="550.769"/>
      <point x="27.9366" y="600.832" type="curve" smooth="yes"/>
      <point x="27.9366" y="628.044"/>
      <point x="15.3812" y="659"/>
      <point x="-32" y="659" type="curve" smooth="yes"/>
      <point x="-82.3283" y="659"/>
      <point x="-122.618" y="613.213"/>
    </contour>
    <contour>
      <point x="-81.6064" y="562.376" type="curve" smooth="yes"/>
      <point x="-81.8071" y="588.625"/>
      <point x="-69.596" y="643"/>
      <point x="-38" y="643" type="curve" smooth="yes"/>
      <point x="-21.7673" y="643"/>
      <point x="-14.0024" y="628.555"/>
      <point x="-14.0024" y="604.937" type="curve" smooth="yes"/>
      <point x="-14" y="579.947"/>
      <point x="-22.4693" y="525"/>
      <point x="-54" y="525" type="curve" smooth="yes"/>
      <point x="-71.1426" y="525"/>
      <point x="-81.4135" y="537.144"/>
    </contour>
  </outline>
</glyph>
<glyph name="uni0368" format="2">
  <unicode hex="0368"/>
  <anchor x="-59" y="509" name="_top"/>
  <outline>
    <contour>
      <point x="-120.574" y="565.018" type="curve" smooth="yes"/>
      <point x="-120.574" y="533.634"/>
      <point x="-103.155" y="509"/>
      <point x="-64" y="509" type="curve" smooth="yes"/>
      <point x="-40" y="509"/>
      <point x="-18" y="522"/>
      <point x="0" y="541" type="curve"/>
      <point x="-1" y="547"/>
      <point x="-3" y="551"/>
      <point x="-10" y="553" type="curve"/>
      <point x="-23" y="541"/>
      <point x="-31" y="531"/>
      <point x="-52" y="531" type="curve" smooth="yes"/>
      <point x="-61.3325" y="531"/>
      <point x="-82.1816" y="534.599"/>
      <point x="-82.1816" y="565.003" type="curve" smooth="yes"/>
      <point x="-82.1816" y="592.103"/>
      <point x="-63.3765" y="645"/>
      <point x="-32" y="645" type="curve" smooth="yes"/>
      <point x="-18.6856" y="645"/>
      <point x="-14.8258" y="637.121"/>
      <point x="-14.8258" y="626.958" type="curve" smooth="yes"/>
      <point x="-14.8258" y="616.24"/>
      <point x="-12.573" y="607"/>
      <point x="1" y="607" type="curve" smooth="yes"/>
      <point x="13.5474" y="607"/>
      <point x="20.4911" y="619.742"/>
      <point x="20.4911" y="630.996" type="curve" smooth="yes"/>
      <point x="20.4911" y="658.517"/>
      <point x="-10.087" y="662"/>
      <point x="-31" y="662" type="curve" smooth="yes"/>
      <point x="-79.1475" y="662"/>
      <point x="-120.574" y="611.543"/>
    </contour>
  </outline>
</glyph>
<glyph name="uni0369" format="2">
  <unicode hex="0369"/>
  <anchor x="-89" y="510" name="_top"/>
  <outline>
    <contour>
      <point x="-64" y="527" type="curve"/>
      <point x="-62" y="526" type="line"/>
      <point x="-66" y="509" type="line"/>
      <point x="-53" y="509" type="line"/>
      <point x="-39" y="516"/>
      <point x="-22" y="519"/>
      <point x="-4" y="521" type="curve"/>
      <point x="-3" y="536" type="line"/>
      <point x="-15" y="538"/>
      <point x="-23.1004" y="542.789"/>
      <point x="-20" y="558" type="curve" smooth="yes"/>
      <point x="12" y="715" type="line"/>
      <point x="1" y="715" type="line"/>
      <point x="-14" y="709"/>
      <point x="-33" y="705"/>
      <point x="-51" y="703" type="curve"/>
      <point x="-53" y="689" type="line"/>
      <point x="-50" y="688"/>
      <point x="-48" y="688"/>
      <point x="-46" y="688" type="curve"/>
      <point x="-36" y="686"/>
      <point x="-31" y="685"/>
      <point x="-33" y="674" type="curve" smooth="yes"/>
      <point x="-39" y="645" type="line"/>
      <point x="-45" y="653"/>
      <point x="-58" y="657"/>
      <point x="-72" y="657" type="curve" smooth="yes"/>
      <point x="-120.752" y="657"/>
      <point x="-152.594" y="601.837"/>
      <point x="-152.594" y="557.473" type="curve" smooth="yes"/>
      <point x="-152.594" y="525.736"/>
      <point x="-134.582" y="510"/>
      <point x="-104" y="510" type="curve" smooth="yes"/>
      <point x="-92" y="510"/>
      <point x="-76" y="518"/>
    </contour>
    <contour>
      <point x="-59" y="544" type="line"/>
      <point x="-70" y="534"/>
      <point x="-82" y="527"/>
      <point x="-90" y="527" type="curve" smooth="yes"/>
      <point x="-103.869" y="527"/>
      <point x="-112.916" y="533.394"/>
      <point x="-112.942" y="555.905" type="curve" smooth="yes"/>
      <point x="-112.974" y="583.111"/>
      <point x="-103.29" y="641"/>
      <point x="-70" y="641" type="curve" smooth="yes"/>
      <point x="-56" y="641"/>
      <point x="-50" y="633"/>
      <point x="-43" y="623" type="curve"/>
    </contour>
  </outline>
</glyph>
<glyph name="uni03DC" format="2">
  <advance width="487"/>
  <unicode hex="03DC"/>
  <outline>
    <contour>
      <point x="612" y="645" type="line"/>
      <point x="260" y="645" type="line"/>
      <point x="161" y="646" type="line"/>
      <point x="159" y="644" type="line"/>
      <point x="155" y="625" type="line" smooth="yes"/>
      <point x="154" y="621"/>
      <point x="156" y="618"/>
      <point x="161" y="618" type="curve" smooth="yes"/>
      <point x="189" y="618" type="line" smooth="yes"/>
      <point x="211" y="618"/>
      <point x="219" y="614"/>
      <point x="219" y="598" type="curve" smooth="yes"/>
      <point x="219" y="592"/>
      <point x="218" y="584"/>
      <point x="216" y="574" type="curve" smooth="yes"/>
      <point x="109" y="71" type="line" smooth="yes"/>
      <point x="103" y="42"/>
      <point x="99" y="27"/>
      <point x="64" y="27" type="curve" smooth="yes"/>
      <point x="35" y="27" type="line" smooth="yes"/>
      <point x="31" y="27"/>
      <point x="27" y="24"/>
      <point x="26" y="20" type="curve" smooth="yes"/>
      <point x="22" y="0" type="line"/>
      <point x="23" y="-2" type="line"/>
      <point x="23" y="-2"/>
      <point x="86" y="0"/>
      <point x="125" y="0" type="curve" smooth="yes"/>
      <point x="171" y="0"/>
      <point x="241" y="-2"/>
      <point x="241" y="-2" type="curve"/>
      <point x="242" y="0" type="line"/>
      <point x="247" y="20" type="line" smooth="yes"/>
      <point x="248" y="26"/>
      <point x="243" y="27"/>
      <point x="240" y="27" type="curve" smooth="yes"/>
      <point x="212" y="27" type="line" smooth="yes"/>
      <point x="191" y="27"/>
      <point x="183" y="31"/>
      <point x="183" y="46" type="curve" smooth="yes"/>
      <point x="183" y="53"/>
      <point x="184" y="61"/>
      <point x="186" y="71" type="curve" smooth="yes"/>
      <point x="242" y="333" type="line"/>
      <point x="395" y="333" type="line" smooth="yes"/>
      <point x="418" y="333"/>
      <point x="431" y="328"/>
      <point x="431" y="309" type="curve" smooth="yes"/>
      <point x="431" y="305"/>
      <point x="431" y="301"/>
      <point x="430" y="296" type="curve" smooth="yes"/>
      <point x="417" y="233" type="line"/>
      <point x="440" y="233" type="line"/>
      <point x="471" y="375" type="line"/>
      <point x="460" y="376"/>
      <point x="422" y="378"/>
      <point x="404" y="378" type="curve" smooth="yes"/>
      <point x="251" y="378" type="line"/>
      <point x="299" y="602" type="line"/>
      <point x="505" y="602" type="line" smooth="yes"/>
      <point x="544" y="602"/>
      <point x="557" y="508"/>
      <point x="557" y="461" type="curve" smooth="yes"/>
      <point x="557" y="454" type="line"/>
      <point x="584" y="454" type="line"/>
    </contour>
  </outline>
</glyph>
<glyph name="uni05C0" format="2">
  <advance width="291"/>
  <unicode hex="05C0"/>
  <outline>
    <contour>
      <point x="47" y="-7" type="line"/>
      <point x="104" y="-7" type="line"/>
      <point x="238" y="572" type="line"/>
      <point x="181" y="572" type="line"/>
    </contour>
  </outline>
</glyph>
<glyph name="uni05F0" format="2">
  <advance width="557"/>
  <unicode hex="05F0"/>
  <outline>
    <contour>
      <point x="380" y="-6" type="line"/>
      <point x="383" y="-6" type="line" smooth="yes"/>
      <point x="395" y="-6"/>
      <point x="435" y="-3"/>
      <point x="447" y="51" type="curve" smooth="yes"/>
      <point x="522" y="406" type="line" smooth="yes"/>
      <point x="527" y="429"/>
      <point x="530" y="447"/>
      <point x="530" y="461" type="curve" smooth="yes"/>
      <point x="530" y="507"/>
      <point x="503" y="512"/>
      <point x="463" y="519" type="curve" smooth="yes"/>
      <point x="443" y="523"/>
      <point x="410" y="529"/>
      <point x="410" y="556" type="curve" smooth="yes"/>
      <point x="410" y="559" type="line"/>
      <point x="410" y="559"/>
      <point x="357" y="550"/>
      <point x="344" y="494" type="curve" smooth="yes"/>
      <point x="343" y="488"/>
      <point x="342" y="483"/>
      <point x="342" y="478" type="curve" smooth="yes"/>
      <point x="342" y="444"/>
      <point x="368" y="420"/>
      <point x="409" y="413" type="curve" smooth="yes"/>
      <point x="450" y="406"/>
      <point x="474" y="398"/>
      <point x="474" y="365" type="curve" smooth="yes"/>
      <point x="474" y="357"/>
      <point x="472" y="348"/>
      <point x="469" y="336" type="curve" smooth="yes"/>
    </contour>
    <contour>
      <point x="110" y="-6" type="line"/>
      <point x="113" y="-6" type="line" smooth="yes"/>
      <point x="124" y="-6"/>
      <point x="165" y="-3"/>
      <point x="176" y="51" type="curve" smooth="yes"/>
      <point x="251" y="406" type="line"/>
      <point x="257" y="429"/>
      <point x="259" y="447"/>
      <point x="259" y="461" type="curve" smooth="yes"/>
      <point x="259" y="507"/>
      <point x="233" y="512"/>
      <point x="192" y="519" type="curve"/>
      <point x="173" y="523"/>
      <point x="140" y="529"/>
      <point x="140" y="556" type="curve" smooth="yes"/>
      <point x="140" y="559" type="line"/>
      <point x="140" y="559"/>
      <point x="86" y="550"/>
      <point x="74" y="494" type="curve"/>
      <point x="72" y="488"/>
      <point x="72" y="483"/>
      <point x="72" y="478" type="curve" smooth="yes"/>
      <point x="72" y="444"/>
      <point x="97" y="420"/>
      <point x="139" y="413" type="curve" smooth="yes"/>
      <point x="179" y="406"/>
      <point x="203" y="398"/>
      <point x="203" y="365" type="curve" smooth="yes"/>
      <point x="203" y="357"/>
      <point x="202" y="348"/>
      <point x="199" y="336" type="curve" smooth="yes"/>
    </contour>
  </outline>
</glyph>
<glyph name="uni1FCE" format="2">
  <advance width="308"/>
  <unicode hex="1FCE"/>
  <anchor x="248" y="500" name="_t.gr_LC"/>
  <outline>
    <contour>
      <point x="226.589" y="678" type="curve" smooth="yes"/>
      <point x="196.124" y="678"/>
      <point x="170.941" y="664.721"/>
      <point x="171.288" y="632.512" type="curve" smooth="yes"/>
      <point x="171.438" y="618.526"/>
      <point x="178.348" y="604"/>
      <point x="209.589" y="604" type="curve" smooth="yes"/>
      <point x="214.891" y="604"/>
      <point x="217.307" y="598.841"/>
      <point x="217.312" y="592.425" type="curve" smooth="yes"/>
      <point x="217.337" y="557.399"/>
      <point x="172.645" y="523.352"/>
      <point x="141.589" y="517" type="curve"/>
      <point x="138.518" y="510.286"/>
      <point x="138.985" y="504.831"/>
      <point x="142.589" y="500" type="curve"/>
      <point x="207.027" y="503.48"/>
      <point x="273.326" y="555.69"/>
      <point x="273.326" y="623.63" type="curve" smooth="yes"/>
      <point x="273.326" y="652.884"/>
      <point x="258.33" y="678"/>
    </contour>
    <contour>
      <point x="366.589" y="685" type="curve" smooth="yes"/>
      <point x="356.589" y="685"/>
      <point x="338.589" y="681"/>
      <point x="330.589" y="665" type="curve"/>
      <point x="264.589" y="509" type="line"/>
      <point x="264.589" y="506"/>
      <point x="264.589" y="496"/>
      <point x="276.589" y="496" type="curve" smooth="yes"/>
      <point x="279.589" y="496"/>
      <point x="283.576" y="497.01"/>
      <point x="286.589" y="501" type="curve" smooth="yes"/>
      <point x="391.589" y="640" type="line"/>
      <point x="393.589" y="644"/>
      <point x="395.781" y="647.957"/>
      <point x="396.589" y="652" type="curve" smooth="yes"/>
      <point x="398.782" y="662.963"/>
      <point x="395.589" y="685"/>
    </contour>
  </outline>
</glyph>
<glyph name="quotesinglbase" format="2">
  <advance width="268"/>
  <unicode hex="201A"/>
  <outline>
    <contour>
      <point x="169" y="127" type="curve" smooth="yes"/>
      <point x="126.301" y="127"/>
      <point x="93.604" y="95.8098"/>
      <point x="93.7116" y="56.3891" type="curve" smooth="yes"/>
      <point x="93.7668" y="36.1637"/>
      <point x="102.308" y="14.8461"/>
      <point x="120" y="6" type="curve" smooth="yes"/>
      <point x="124" y="4" type="line" smooth="yes"/>
      <point x="131.949" y="0.0254445"/>
      <point x="147.542" y="-8.79093"/>
      <point x="147.566" y="-21.7539" type="curve" smooth="yes"/>
      <point x="147.635" y="-58.064"/>
      <point x="63.8122" y="-127.44"/>
      <point x="31" y="-136" type="curve"/>
      <point x="23" y="-149"/>
      <point x="21" y="-159"/>
      <point x="31" y="-167" type="curve"/>
      <point x="129.6" y="-151.065"/>
      <point x="232.252" y="-50.3291"/>
      <point x="232.252" y="52.9982" type="curve" smooth="yes"/>
      <point x="232.252" y="102.052"/>
      <point x="208.645" y="127"/>
    </contour>
  </outline>
</glyph>
<glyph name="uni201F" format="2">
  <advance width="373"/>
  <unicode hex="201F"/>
  <outline>
    <contour>
      <point x="337.604" y="634" type="curve" smooth="yes"/>
      <point x="337.604" y="563"/>
      <point x="379.604" y="508"/>
      <point x="425.604" y="489" type="curve"/>
      <point x="438.604" y="494"/>
      <point x="443.604" y="504"/>
      <point x="443.604" y="518" type="curve"/>
      <point x="414.604" y="534"/>
      <point x="396.604" y="588"/>
      <point x="396.604" y="622" type="curve" smooth="yes"/>
      <point x="396.604" y="654.425"/>
      <point x="419.563" y="662.604"/>
      <point x="444.211" y="671.384" type="curve" smooth="yes"/>
      <point x="472.773" y="681.559"/>
      <point x="503.666" y="697.542"/>
      <point x="503.604" y="743" type="curve" smooth="yes"/>
      <point x="503.559" y="775"/>
      <point x="480.604" y="793"/>
      <point x="448.604" y="793" type="curve" smooth="yes"/>
      <point x="376.604" y="793"/>
      <point x="337.604" y="702"/>
    </contour>
    <contour>
      <point x="161.604" y="634" type="curve" smooth="yes"/>
      <point x="161.604" y="563"/>
      <point x="203.604" y="508"/>
      <point x="249.604" y="489" type="curve"/>
      <point x="262.604" y="494"/>
      <point x="267.604" y="504"/>
      <point x="267.604" y="518" type="curve"/>
      <point x="238.604" y="534"/>
      <point x="220.604" y="588"/>
      <point x="220.604" y="622" type="curve" smooth="yes"/>
      <point x="220.604" y="654.425"/>
      <point x="243.563" y="662.604"/>
      <point x="268.211" y="671.384" type="curve" smooth="yes"/>
      <point x="296.773" y="681.559"/>
      <point x="327.666" y="697.542"/>
      <point x="327.604" y="743" type="curve" smooth="yes"/>
      <point x="327.559" y="775"/>
      <point x="304.604" y="793"/>
      <point x="272.604" y="793" type="curve" smooth="yes"/>
      <point x="200.604" y="793"/>
      <point x="161.604" y="702"/>
    </contour>
  </outline>
  <guideline angle="0" x="0" y="500"/>
  <guideline angle="0" x="0" y="794"/>
</glyph>
<glyph name="uni2071" format="2">
  <advance width="269"/>
  <unicode hex="2071"/>
  <outline>
    <contour>
      <point x="125.618" y="460" type="curve"/>
      <point x="159.808" y="461.32"/>
      <point x="195.008" y="464"/>
      <point x="229.224" y="464" type="curve" smooth="yes"/>
      <point x="237.379" y="464" type="line" smooth="yes"/>
      <point x="267.517" y="464"/>
      <point x="298.509" y="461.32"/>
      <point x="328.618" y="460" type="curve"/>
      <point x="332.075" y="463.874"/>
      <point x="338.052" y="480.849"/>
      <point x="334.618" y="489" type="curve"/>
      <point x="298.335" y="489"/>
      <point x="287.524" y="509.065"/>
      <point x="287.659" y="536.046" type="curve" smooth="yes"/>
      <point x="287.713" y="546.602"/>
      <point x="289.506" y="558.843"/>
      <point x="292.468" y="572.418" type="curve" smooth="yes"/>
      <point x="315.306" y="677.076" type="line" smooth="yes"/>
      <point x="318.226" y="690.454"/>
      <point x="327.718" y="713.357"/>
      <point x="327.718" y="724.255" type="curve" smooth="yes"/>
      <point x="327.718" y="732.571"/>
      <point x="320.022" y="736"/>
      <point x="312.468" y="736" type="curve"/>
      <point x="286.468" y="726"/>
      <point x="242.776" y="718.461"/>
      <point x="184.468" y="712" type="curve"/>
      <point x="179.93" y="705.045"/>
      <point x="177.495" y="692.139"/>
      <point x="178.468" y="683" type="curve"/>
      <point x="213.485" y="680.066"/>
      <point x="224.696" y="672.244"/>
      <point x="224.746" y="652.17" type="curve" smooth="yes"/>
      <point x="224.765" y="644.347"/>
      <point x="223.064" y="634.668"/>
      <point x="220.468" y="622.682" type="curve" smooth="yes"/>
      <point x="203.591" y="544.75" type="line" smooth="yes"/>
      <point x="197.784" y="517.938"/>
      <point x="182.522" y="489"/>
      <point x="131.618" y="489" type="curve"/>
      <point x="126.621" y="483.394"/>
      <point x="123.852" y="466.874"/>
    </contour>
    <contour>
      <point x="243.337" y="803.657" type="curve" smooth="yes"/>
      <point x="243.377" y="783.241"/>
      <point x="256.028" y="765"/>
      <point x="282.742" y="765" type="curve" smooth="yes"/>
      <point x="317.047" y="765"/>
      <point x="343.522" y="795.087"/>
      <point x="343.522" y="826.232" type="curve" smooth="yes"/>
      <point x="343.522" y="847.028"/>
      <point x="330.468" y="864"/>
      <point x="304.256" y="864" type="curve" smooth="yes"/>
      <point x="272.545" y="864"/>
      <point x="243.273" y="835.908"/>
    </contour>
  </outline>
  <guideline angle="257.829" x="199" y="522"/>
  <guideline angle="0" x="0" y="820"/>
  <guideline angle="0" x="0" y="460"/>
  <guideline angle="0" x="0" y="816"/>
  <guideline angle="0" x="0" y="464"/>
</glyph>
<glyph name="uni2075" format="2">
  <advance width="275"/>
  <unicode hex="2075"/>
  <outline>
    <contour>
      <point x="273.468" y="585.273" type="curve" smooth="yes"/>
      <point x="273.468" y="535.557"/>
      <point x="249.025" y="491"/>
      <point x="221.752" y="491" type="curve" smooth="yes"/>
      <point x="206.752" y="491"/>
      <point x="197.424" y="497.833"/>
      <point x="189.681" y="510" type="curve" smooth="yes"/>
      <point x="183.42" y="519.839"/>
      <point x="171.733" y="535"/>
      <point x="156.733" y="535" type="curve" smooth="yes"/>
      <point x="133.544" y="535"/>
      <point x="122.139" y="521.021"/>
      <point x="122.139" y="497.346" type="curve" smooth="yes"/>
      <point x="122.139" y="480.792"/>
      <point x="142.46" y="460"/>
      <point x="212.681" y="460" type="curve" smooth="yes"/>
      <point x="296.681" y="460"/>
      <point x="366.058" y="529.926"/>
      <point x="366.058" y="613.541" type="curve" smooth="yes"/>
      <point x="366.058" y="668.634"/>
      <point x="334.81" y="705.317"/>
      <point x="279.667" y="705.317" type="curve" smooth="yes"/>
      <point x="263.836" y="705.317"/>
      <point x="242.084" y="702.557"/>
      <point x="224.681" y="697" type="curve"/>
      <point x="242.956" y="754" type="line"/>
      <point x="260.673" y="750.02"/>
      <point x="279.682" y="748"/>
      <point x="297.932" y="748" type="curve" smooth="yes"/>
      <point x="310.905" y="748" type="line" smooth="yes"/>
      <point x="333.12" y="748"/>
      <point x="355.404" y="750.02"/>
      <point x="377.956" y="754" type="curve"/>
      <point x="403.569" y="815.139" type="line"/>
      <point x="399.387" y="819.811" type="line"/>
      <point x="371.695" y="815.564"/>
      <point x="348.104" y="813"/>
      <point x="320.744" y="813" type="curve" smooth="yes"/>
      <point x="306.878" y="813" type="line" smooth="yes"/>
      <point x="281.417" y="813"/>
      <point x="254.915" y="815.02"/>
      <point x="229.956" y="819" type="curve"/>
      <point x="176.681" y="660" type="line"/>
      <point x="180.681" y="656" type="line"/>
      <point x="193.626" y="662.134"/>
      <point x="204.139" y="664.442"/>
      <point x="217.395" y="664.442" type="curve" smooth="yes"/>
      <point x="254.676" y="664.442"/>
      <point x="273.468" y="637.752"/>
    </contour>
  </outline>
  <guideline angle="251.229" x="207" y="711"/>
  <guideline angle="71.5651" x="203" y="595"/>
  <guideline angle="67.4428" x="354" y="646"/>
  <guideline angle="0" x="0" y="820"/>
  <guideline angle="0" x="0" y="460"/>
  <guideline angle="0" x="0" y="816"/>
  <guideline angle="0" x="0" y="464"/>
</glyph>
<glyph name="kip" format="2">
  <advance width="688"/>
  <unicode hex="20AD"/>
  <anchor x="478" y="740" name="top"/>
  <anchor x="323" y="-60" name="b.minus-60"/>
  <outline>
    <component base="K"/>
    <contour>
      <point x="111" y="314.472" type="line"/>
      <point x="541" y="314.472" type="line"/>
      <point x="548" y="348.472" type="line"/>
      <point x="118" y="348.472" type="line"/>
    </contour>
  </outline>
</glyph>
<glyph name="circlemultiply" format="2">
  <advance width="564"/>
  <unicode hex="2297"/>
  <outline>
    <contour>
      <point x="450" y="57" type="curve" smooth="yes"/>
      <point x="554" y="144"/>
      <point x="581" y="284"/>
      <point x="511" y="371" type="curve" smooth="yes"/>
      <point x="441" y="458"/>
      <point x="301" y="458"/>
      <point x="198" y="371" type="curve" smooth="yes"/>
      <point x="94" y="284"/>
      <point x="67" y="144"/>
      <point x="137" y="57" type="curve" smooth="yes"/>
      <point x="206" y="-29"/>
      <point x="346" y="-30"/>
    </contour>
    <contour>
      <point x="200" y="326" type="curve"/>
      <point x="293" y="211" type="line"/>
      <point x="159" y="98" type="line"/>
      <point x="118" y="164"/>
      <point x="135" y="259"/>
    </contour>
    <contour>
      <point x="408" y="69" type="line"/>
      <point x="330" y="17"/>
      <point x="237" y="18"/>
      <point x="181" y="71" type="curve"/>
      <point x="315" y="183" type="line"/>
    </contour>
    <contour>
      <point x="241" y="361" type="line"/>
      <point x="319" y="412"/>
      <point x="412" y="411"/>
      <point x="468" y="357" type="curve"/>
      <point x="335" y="245" type="line"/>
    </contour>
    <contour>
      <point x="449" y="104" type="curve"/>
      <point x="357" y="218" type="line"/>
      <point x="490" y="329" type="line"/>
      <point x="530" y="263"/>
      <point x="512" y="170"/>
    </contour>
  </outline>
</glyph>
<glyph name="uni2C66" format="2">
  <advance width="338"/>
  <unicode hex="2C66"/>
  <outline>
    <component base="t"/>
    <contour>
      <point x="241" y="190" type="line"/>
      <point x="452.026" y="453.552" type="line"/>
      <point x="445.703" y="466.96"/>
      <point x="437.874" y="474.592"/>
      <point x="429" y="476" type="curve"/>
      <point x="258" y="262" type="line"/>
    </contour>
    <contour>
      <point x="191" y="197" type="line"/>
      <point x="-22.8011" y="-41.6832" type="line"/>
      <point x="-16.5521" y="-54.3877"/>
      <point x="-8.79971" y="-61.2954"/>
      <point x="0" y="-62" type="curve"/>
      <point x="175" y="127" type="line"/>
    </contour>
  </outline>
  <guideline angle="316.273" x="429" y="-474.348"/>
  <guideline angle="228.148" x="191" y="197"/>
</glyph>
<glyph name=".notdef" format="2">
  <advance width="1000"/>
  <outline>
    <contour>
      <point x="100" y="0" type="line"/>
      <point x="902" y="0" type="line"/>
      <point x="902" y="800" type="line"/>
      <point x="100" y="800" type="line"/>
    </contour>
    <contour>
      <point x="525" y="737" type="line"/>
      <point x="804" y="737" type="line"/>
      <point x="804" y="327" type="line"/>
      <point x="525" y="327" type="line"/>
    </contour>
    <contour>
      <point x="469" y="737" type="line"/>
      <point x="469" y="327" type="line"/>
      <point x="387" y="327" type="line"/>
      <point x="387" y="406" type="line"/>
      <point x="271" y="579" type="line"/>
      <point x="271" y="327" type="line"/>
      <point x="190" y="327" type="line"/>
      <point x="190" y="737" type="line"/>
      <point x="271" y="737" type="line"/>
      <point x="387" y="564" type="line"/>
      <point x="387" y="737" type="line"/>
    </contour>
    <contour>
      <point x="190" y="258" type="line"/>
      <point x="315" y="258" type="line"/>
      <point x="315" y="222" type="line"/>
      <point x="226" y="222" type="line"/>
      <point x="226" y="111" type="line"/>
      <point x="278" y="111" type="line"/>
      <point x="278" y="148" type="line"/>
      <point x="253" y="148" type="line"/>
      <point x="253" y="185" type="line"/>
      <point x="315" y="185" type="line"/>
      <point x="315" y="75" type="line"/>
      <point x="190" y="75" type="line"/>
    </contour>
    <contour>
      <point x="339" y="258" type="line"/>
      <point x="377" y="258" type="line"/>
      <point x="377" y="111" type="line"/>
      <point x="449" y="111" type="line"/>
      <point x="449" y="75" type="line"/>
      <point x="339" y="75" type="line"/>
    </contour>
    <contour>
      <point x="402" y="258" type="line"/>
      <point x="438" y="258" type="line"/>
      <point x="438" y="185" type="line"/>
      <point x="479" y="185" type="line"/>
      <point x="479" y="258" type="line"/>
      <point x="516" y="258" type="line"/>
      <point x="516" y="75" type="line"/>
      <point x="479" y="75" type="line"/>
      <point x="479" y="148" type="line"/>
      <point x="402" y="148" type="line"/>
    </contour>
    <contour>
      <point x="546" y="258" type="line"/>
      <point x="660" y="258" type="line"/>
      <point x="660" y="148" type="line"/>
      <point x="583" y="148" type="line"/>
      <point x="583" y="75" type="line"/>
      <point x="546" y="75" type="line"/>
    </contour>
    <contour>
      <point x="689" y="258" type="line"/>
      <point x="726" y="258" type="line"/>
      <point x="726" y="185" type="line"/>
      <point x="767" y="185" type="line"/>
      <point x="767" y="257" type="line"/>
      <point x="803" y="257" type="line"/>
      <point x="803" y="75" type="line"/>
      <point x="767" y="75" type="line"/>
      <point x="767" y="148" type="line"/>
      <point x="726" y="148" type="line"/>
      <point x="726" y="75" type="line"/>
      <point x="689" y="75" type="line"/>
    </contour>
    <contour>
      <point x="607" y="655" type="line"/>
      <point x="607" y="409" type="line"/>
      <point x="723" y="409" type="line"/>
      <point x="723" y="655" type="line"/>
    </contour>
    <contour>
      <point x="583" y="222" type="line"/>
      <point x="583" y="185" type="line"/>
      <point x="623" y="185" type="line"/>
      <point x="623" y="222" type="line"/>
    </contour>
  </outline>
</glyph>
<glyph name="circumflex.cap" format="2">
  <anchor x="-126" y="740" name="_top"/>
  <outline>
    <contour>
      <point x="10" y="766" type="curve"/>
      <point x="-26" y="792"/>
      <point x="-79" y="839"/>
      <point x="-110" y="876" type="curve"/>
      <point x="-125" y="871" type="line"/>
      <point x="-165" y="836"/>
      <point x="-221" y="794"/>
      <point x="-267" y="767" type="curve"/>
      <point x="-268" y="757"/>
      <point x="-265" y="744"/>
      <point x="-257" y="740" type="curve"/>
      <point x="-218" y="751"/>
      <point x="-159" y="774"/>
      <point x="-126" y="796" type="curve"/>
      <point x="-102" y="775"/>
      <point x="-47" y="752"/>
      <point x="-10" y="740" type="curve"/>
      <point x="0" y="744"/>
      <point x="9" y="756"/>
    </contour>
  </outline>
</glyph>
<glyph name="uni03040300" format="2">
  <anchor x="-273" y="500" name="_top"/>
  <outline>
    <component base="uni0304" xOffset="-75"/>
    <contour>
      <point x="-296" y="709" type="line"/>
      <point x="-299" y="710"/>
      <point x="-307" y="711"/>
      <point x="-312" y="711" type="curve" smooth="yes"/>
      <point x="-343" y="711"/>
      <point x="-353" y="704"/>
      <point x="-359" y="693" type="curve"/>
      <point x="-359" y="675" type="line"/>
      <point x="-298" y="614" type="line" smooth="yes"/>
      <point x="-284" y="600"/>
      <point x="-272" y="598"/>
      <point x="-262" y="598" type="curve" smooth="yes"/>
      <point x="-254" y="598"/>
      <point x="-248" y="605"/>
      <point x="-248" y="612" type="curve" smooth="yes"/>
      <point x="-248" y="618"/>
      <point x="-249" y="626"/>
      <point x="-255" y="636" type="curve" smooth="yes"/>
    </contour>
  </outline>
</glyph>
<glyph name="uni03060303" format="2">
  <anchor x="-87" y="500" name="_top"/>
  <outline>
    <contour>
      <point x="-187" y="653" type="curve"/>
      <point x="-222" y="643" type="line"/>
      <point x="-226" y="562"/>
      <point x="-182" y="500"/>
      <point x="-101" y="500" type="curve" smooth="yes"/>
      <point x="-50" y="500"/>
      <point x="34" y="538"/>
      <point x="58" y="643" type="curve"/>
      <point x="28" y="653" type="line"/>
      <point x="16" y="589"/>
      <point x="-43" y="574"/>
      <point x="-90" y="574" type="curve" smooth="yes"/>
      <point x="-153" y="574"/>
      <point x="-193" y="599"/>
    </contour>
    <contour>
      <point x="-16" y="748" type="curve" smooth="yes"/>
      <point x="-25" y="748"/>
      <point x="-45" y="748"/>
      <point x="-58" y="762" type="curve" smooth="yes"/>
      <point x="-72" y="778"/>
      <point x="-89" y="787"/>
      <point x="-114" y="787" type="curve" smooth="yes"/>
      <point x="-141" y="787"/>
      <point x="-173" y="739"/>
      <point x="-192" y="688" type="curve"/>
      <point x="-190" y="683"/>
      <point x="-180" y="676"/>
      <point x="-171" y="676" type="curve"/>
      <point x="-159" y="714"/>
      <point x="-145" y="716"/>
      <point x="-127" y="716" type="curve" smooth="yes"/>
      <point x="-114" y="716"/>
      <point x="-98" y="713"/>
      <point x="-84" y="699" type="curve" smooth="yes"/>
      <point x="-69" y="685"/>
      <point x="-54" y="678"/>
      <point x="-36" y="678" type="curve" smooth="yes"/>
      <point x="-6" y="678"/>
      <point x="29" y="719"/>
      <point x="49" y="777" type="curve"/>
      <point x="48" y="785"/>
      <point x="38" y="791"/>
      <point x="27" y="791" type="curve"/>
      <point x="12" y="755"/>
      <point x="-5" y="748"/>
    </contour>
  </outline>
</glyph>
